<svg xmlns="http://www.w3.org/2000/svg" data-name="Layer 1" viewBox="0 0 100 125" x="0px" y="0px"><title>9</title><path d="M67.791,15.97656H61.50586v-4H67.791V7a2,2,0,0,1,4,0V20.95361a2,2,0,0,1-4,0ZM29.85449,20.95361a2,2,0,0,0,4,0V7a2,2,0,0,0-4,0v4.97656H23.56934v4h6.28515Zm12.64551,0a2,2,0,0,0,4,0V7a2,2,0,0,0-4,0v4.97656H36.21484v4H42.5Zm12.64551,0a2,2,0,0,0,4,0V7a2,2,0,0,0-4,0v4.97656H48.86035v4h6.28516ZM95,72A22.99432,22.99432,0,0,1,52.38745,84H14.84961A9.86143,9.86143,0,0,1,5,74.1499V21.83008A9.85253,9.85253,0,0,1,14.84961,11.98H17.209V7a2,2,0,0,1,4,0V20.95361a2,2,0,0,1-4,0V15.98H14.84961A5.85152,5.85152,0,0,0,9,21.83008V32.90674H80V21.83008A5.85652,5.85652,0,0,0,74.15039,15.98v-4A9.86143,9.86143,0,0,1,84,21.83008V52.38751A23.00584,23.00584,0,0,1,95,72ZM50.43738,80A22.99717,22.99717,0,0,1,80,50.43738V36.90674H9V74.1499A5.85652,5.85652,0,0,0,14.84961,80ZM91,72A19,19,0,1,0,72,91,19.02162,19.02162,0,0,0,91,72ZM74.00342,58.00415a2,2,0,0,0-4,0V72.00366a2,2,0,0,0,2,2h14a2,2,0,0,0,0-4h-12Z"/><text x="0" y="115" fill="#000000" font-size="5px" font-weight="bold" font-family="'Helvetica Neue', Helvetica, Arial-Unicode, Arial, Sans-serif">Created by Hrbon</text><text x="0" y="120" fill="#000000" font-size="5px" font-weight="bold" font-family="'Helvetica Neue', Helvetica, Arial-Unicode, Arial, Sans-serif">from the Noun Project</text></svg>