<svg xmlns="http://www.w3.org/2000/svg" data-name="Layer 1" viewBox="0 0 100 125" x="0px" y="0px"><title>01</title><g data-name="Group"><path data-name="Path" d="M58.36,65.26H25.45a2,2,0,0,0,0,4H58.36a2,2,0,0,0,0-4Z"/><path data-name="Path" d="M25.45,57.26H43.36a2,2,0,0,0,0-4H25.45a2,2,0,0,0,0,4Z"/><path data-name="Path" d="M58.36,77.26H25.45a2,2,0,0,0,0,4H58.36a2,2,0,1,0,0-4Z"/><path data-name="Compound Path" d="M87.92,21.25a2,2,0,0,0-.64-1.46L69.81,3.54A2,2,0,0,0,68.45,3H36.08a8,8,0,0,0-8,8v8h-8a8,8,0,0,0-8,8V89a8,8,0,0,0,8,8H63.92a8,8,0,0,0,8-8V81h8a8,8,0,0,0,8-8ZM70.45,9.59l10.39,9.66H70.45ZM63.92,93H20.08a4,4,0,0,1-4-4V27a4,4,0,0,1,4-4H50.45V37.25a2,2,0,0,0,2,2H67.92V89A4,4,0,0,1,63.92,93ZM54.45,25.59l10.39,9.66H54.45ZM79.92,77h-8V37.25a2,2,0,0,0-.64-1.46L53.81,19.54A2,2,0,0,0,52.45,19H32.08V11a4,4,0,0,1,4-4H66.45V21.25a2,2,0,0,0,2,2H83.92V73A4,4,0,0,1,79.92,77Z"/></g><text x="0" y="115" fill="#000000" font-size="5px" font-weight="bold" font-family="'Helvetica Neue', Helvetica, Arial-Unicode, Arial, Sans-serif">Created by Logan</text><text x="0" y="120" fill="#000000" font-size="5px" font-weight="bold" font-family="'Helvetica Neue', Helvetica, Arial-Unicode, Arial, Sans-serif">from the Noun Project</text></svg>