<svg xmlns="http://www.w3.org/2000/svg" xmlns:xlink="http://www.w3.org/1999/xlink" version="1.1" x="0px" y="0px" viewBox="0 0 100 125" style="enable-background:new 0 0 100 100;" xml:space="preserve"><g><g><path d="M50,47.7c-7.8,0-14.1-6.3-14.1-14.1S42.2,19.5,50,19.5c7.8,0,14.1,6.3,14.1,14.1S57.8,47.7,50,47.7z M50,22.5    c-6.1,0-11.1,5-11.1,11.1s5,11.1,11.1,11.1c6.1,0,11.1-5,11.1-11.1S56.1,22.5,50,22.5z"/></g><g><g><path d="M79.1,48.9c-5.5,0-9.9-4.4-9.9-9.9s4.4-9.9,9.9-9.9S89,33.5,89,39S84.6,48.9,79.1,48.9z M79.1,32.1     c-3.8,0-6.9,3.1-6.9,6.9s3.1,6.9,6.9,6.9S86,42.8,86,39S82.9,32.1,79.1,32.1z"/></g><g><path d="M20.9,48.9c-5.5,0-9.9-4.4-9.9-9.9s4.4-9.9,9.9-9.9s9.9,4.4,9.9,9.9S26.4,48.9,20.9,48.9z M20.9,32.1     c-3.8,0-6.9,3.1-6.9,6.9s3.1,6.9,6.9,6.9s6.9-3.1,6.9-6.9S24.7,32.1,20.9,32.1z"/></g><g><g><path d="M79.2,71c-4,0-6.5-0.2-8.6-0.5l-1.2-0.2v-1.7c0-4.2-1.3-8.4-3.8-12.2l-0.5-0.7l0.4-0.8c2.7-5.4,8.1-8.9,13.6-8.9      c8.3,0,15.5,7.5,15.6,16.5C94.7,71,86.8,71,79.2,71z M72.4,67.7c1.7,0.2,3.8,0.3,6.8,0.3c9.5,0,12.5-0.8,12.5-5.5      C91.6,55.2,85.8,49,79.1,49c-4.2,0-8.3,2.5-10.6,6.5C70.9,59.3,72.2,63.5,72.4,67.7z"/></g><g><path d="M20.9,71c-7.6,0-15.5,0-15.5-8.5c0-8.9,7.1-16.5,15.5-16.5c5.6,0,10.9,3.5,13.6,8.9l0.4,0.8l-0.5,0.7      c-2.5,3.8-3.8,7.9-3.7,12.1l0,1.7l-1.2,0.2C27.4,70.8,24.9,71,20.9,71z M20.9,49c-6.7,0-12.5,6.3-12.5,13.5      c0,4.7,3,5.5,12.5,5.5c3,0,5.1-0.1,6.8-0.3c0.1-4.2,1.4-8.4,3.8-12.2C29.2,51.5,25.1,49,20.9,49z"/></g></g></g><g><path d="M50,80.5c-11.5,0-22.4,0-22.4-11.9c0-12.7,10.5-23.9,22.4-23.9s22.4,11.2,22.4,23.9C72.4,80.5,61.5,80.5,50,80.5z     M50,47.7c-10.3,0-19.4,9.8-19.4,20.9c0,8.1,5.9,8.9,19.4,8.9c13.5,0,19.4-0.8,19.4-8.9C69.4,57.5,60.3,47.7,50,47.7z"/></g></g><text x="0" y="115" fill="#000000" font-size="5px" font-weight="bold" font-family="'Helvetica Neue', Helvetica, Arial-Unicode, Arial, Sans-serif">Created by pu koh</text><text x="0" y="120" fill="#000000" font-size="5px" font-weight="bold" font-family="'Helvetica Neue', Helvetica, Arial-Unicode, Arial, Sans-serif">from the Noun Project</text></svg>