<svg xmlns="http://www.w3.org/2000/svg" xmlns:xlink="http://www.w3.org/1999/xlink" version="1.1" x="0px" y="0px" viewBox="0 0 100 125" style="enable-background:new 0 0 100 100;" xml:space="preserve"><path d="M61.5,88h17c1.9,0,3.5-1.6,3.5-3.5V53h6.2c1.5,0,2.7-0.9,3.3-2.2c0.5-1.4,0.2-2.9-0.9-3.9L54.4,13.5c-1.3-1.2-3.4-1.2-4.8,0  L13.4,46.9c-1.1,1-1.4,2.5-0.9,3.9c0.5,1.4,1.8,2.2,3.3,2.2H22v31.5c0,1.9,1.6,3.5,3.5,3.5h17c1.9,0,3.5-1.6,3.5-3.5V63.1h12v21.4  C58,86.4,59.6,88,61.5,88z M45.5,59.1c-1.9,0-3.5,1.6-3.5,3.5V84H26V52.5c0-1.9-1.6-3.5-3.5-3.5H17l35-32.3L87,49h-5.5  c-1.9,0-3.5,1.6-3.5,3.5V84H62V62.6c0-1.9-1.6-3.5-3.5-3.5H45.5z"/><text x="0" y="115" fill="#000000" font-size="5px" font-weight="bold" font-family="'Helvetica Neue', Helvetica, Arial-Unicode, Arial, Sans-serif">Created by praveen patchu</text><text x="0" y="120" fill="#000000" font-size="5px" font-weight="bold" font-family="'Helvetica Neue', Helvetica, Arial-Unicode, Arial, Sans-serif">from the Noun Project</text></svg>