<svg xmlns="http://www.w3.org/2000/svg" xmlns:xlink="http://www.w3.org/1999/xlink" version="1.1" x="0px" y="0px" viewBox="0 0 100 125" enable-background="new 0 0 100 100" xml:space="preserve"><path d="M77.582,88.582L48.418,59.418C47.157,58.157,48.05,56,49.834,56h29.164C80.104,56,81,56.896,81,58.002v29.164  C81,88.95,78.843,89.843,77.582,88.582z"/><path d="M86,13H14c-3.314,0-6,2.686-6,6v45c0,3.314,2.686,6,6,6h72c3.314,0,6-2.686,6-6V19C92,15.686,89.314,13,86,13z M30,47.5  c-3.314,0-6-2.686-6-6s2.686-6,6-6s6,2.686,6,6S33.314,47.5,30,47.5z M50,47.5c-3.314,0-6-2.686-6-6s2.686-6,6-6s6,2.686,6,6  S53.314,47.5,50,47.5z M70,47.5c-3.314,0-6-2.686-6-6s2.686-6,6-6s6,2.686,6,6S73.314,47.5,70,47.5z"/><text x="0" y="115" fill="#000000" font-size="5px" font-weight="bold" font-family="'Helvetica Neue', Helvetica, Arial-Unicode, Arial, Sans-serif">Created by Gabriele Malaspina</text><text x="0" y="120" fill="#000000" font-size="5px" font-weight="bold" font-family="'Helvetica Neue', Helvetica, Arial-Unicode, Arial, Sans-serif">from the Noun Project</text></svg>