<svg xmlns="http://www.w3.org/2000/svg" xmlns:xlink="http://www.w3.org/1999/xlink" version="1.1" x="0px" y="0px" viewBox="0 0 100 125" style="enable-background:new 0 0 100 100;" xml:space="preserve"><style type="text/css">
	.st0{display:none;}
	.st1{display:inline;fill:#663333;}
	.st2{fill:#FFFFFF;stroke:#000000;stroke-width:4;stroke-miterlimit:10;}
	.st3{fill:none;stroke:#000000;stroke-width:4;stroke-miterlimit:10;}
	.st4{fill:#FFFFFF;}
	.st5{stroke:#000000;stroke-width:4;stroke-miterlimit:10;}
	.st6{stroke:#FFFFFF;stroke-width:4;stroke-miterlimit:10;}
	.st7{stroke:#000000;stroke-width:2;stroke-miterlimit:10;}
	.st8{fill:#FFFFFF;stroke:#FFFFFF;stroke-width:2;stroke-miterlimit:10;}
</style><g class="st0"><rect x="-895.5" y="-24" class="st1" width="1246.4" height="445.5"/></g><g><path d="M71.1,36.7c-3.1,0-5.5,2.5-5.5,5.5s2.5,5.5,5.5,5.5c3.1,0,5.5-2.5,5.5-5.5S74.2,36.7,71.1,36.7z"/><path d="M50.9,36.7c-3.1,0-5.5,2.5-5.5,5.5s2.5,5.5,5.5,5.5s5.5-2.5,5.5-5.5S53.9,36.7,50.9,36.7z"/><path d="M30.6,36.7c-3.1,0-5.5,2.5-5.5,5.5s2.5,5.5,5.5,5.5c3.1,0,5.5-2.5,5.5-5.5S33.7,36.7,30.6,36.7z"/><path d="M80.3,6.4H19.6C11.6,6.4,5,13,5,21.1v39.6c0,8.1,6.6,14.6,14.6,14.6h28.5L79,93.6l-1.5-18.3h2.9c8.1,0,14.7-6.6,14.7-14.6   V21.1C95,13,88.4,6.4,80.3,6.4z M90.8,60.6c0,5.8-4.7,10.4-10.4,10.4h-7.5l1.2,14.7L49.3,71.1H19.6c-5.8,0-10.4-4.7-10.4-10.4V21.1   c0-5.8,4.7-10.4,10.4-10.4h60.7c5.8,0,10.4,4.7,10.4,10.4V60.6z"/></g><text x="0" y="115" fill="#000000" font-size="5px" font-weight="bold" font-family="'Helvetica Neue', Helvetica, Arial-Unicode, Arial, Sans-serif">Created by Anastasia Latysheva</text><text x="0" y="120" fill="#000000" font-size="5px" font-weight="bold" font-family="'Helvetica Neue', Helvetica, Arial-Unicode, Arial, Sans-serif">from the Noun Project</text></svg>