<svg xmlns="http://www.w3.org/2000/svg" xmlns:xlink="http://www.w3.org/1999/xlink" version="1.1" x="0px" y="0px" viewBox="0 0 512 640" style="enable-background:new 0 0 512 512;" xml:space="preserve"><g><g><path d="M431.5,231.2h-13.9L290.4,112.1c2-4.6,3.1-9.6,3.1-14.9c0-20.7-16.8-37.5-37.5-37.5s-37.5,16.8-37.5,37.5    c0,5.3,1.1,10.3,3.1,14.9L94.4,231.2H80.5c-27.6,0-50,22.4-50,50v121c0,27.6,22.4,50,50,50h351c27.6,0,50-22.4,50-50v-121    C481.5,253.7,459.1,231.2,431.5,231.2z M234.2,127.7c6.2,4.4,13.7,7,21.8,7s15.7-2.6,21.8-7l110.5,103.5H123.6L234.2,127.7z     M130.5,306.8h141c5.5,0,10,4.5,10,10s-4.5,10-10,10h-141c-5.5,0-10-4.5-10-10S125,306.8,130.5,306.8z M381.5,376.8h-251    c-5.5,0-10-4.5-10-10s4.5-10,10-10h251c5.5,0,10,4.5,10,10S387,376.8,381.5,376.8z"/></g></g><text x="0" y="527" fill="#000000" font-size="5px" font-weight="bold" font-family="'Helvetica Neue', Helvetica, Arial-Unicode, Arial, Sans-serif">Created by Alexander</text><text x="0" y="532" fill="#000000" font-size="5px" font-weight="bold" font-family="'Helvetica Neue', Helvetica, Arial-Unicode, Arial, Sans-serif">from the Noun Project</text></svg>